<svg width="22" height="22" viewBox="0 0 22 22" fill="none" xmlns="http://www.w3.org/2000/svg">
<path d="M18.676 4.59028C16.8416 2.39588 14.0839 1 11 1C5.47715 1 1 5.47715 1 11C1 11.6828 1.06844 12.3497 1.19884 12.9941M20.7339 8.6984C20.9079 9.43733 21 10.2079 21 11C21 16.5228 16.5228 21 11 21C7.81836 21 4.98376 19.5141 3.15227 17.1985" stroke="#909090" stroke-linecap="round"/>
<path d="M19.1667 2.3335V5.00016H16.5" stroke="#909090" stroke-linecap="round" stroke-linejoin="round"/>
<path d="M5.50016 17H2.8335V19.6667" stroke="#909090" stroke-linecap="round" stroke-linejoin="round"/>
<path d="M11 5.6665V16.3332" stroke="#909090" stroke-linecap="round"/>
<path d="M13.4138 8.53569C13.2542 7.829 12.3423 7.04249 11.0086 7.04248C9.67496 7.04247 8.64896 7.9088 8.64896 9.00316C8.64896 11.4881 13.5962 10.2114 13.5962 13.0953C13.5962 14.1377 12.3422 15.0217 11.0086 15.0217C9.67509 15.0217 8.75149 14.201 8.47803 13.3233" stroke="#909090" stroke-linecap="round" stroke-linejoin="round"/>
</svg>
