<svg xmlns="http://www.w3.org/2000/svg" width="21.5" height="21.5" viewBox="0 0 21.5 21.5">
  <path id="Контур_1163" data-name="Контур 1163" d="M2,12.2c0-2.288,0-3.433.519-4.381S3.987,6.286,5.884,5.108l2-1.241C9.889,2.622,10.892,2,12,2s2.111.622,4.116,1.867l2,1.241c1.9,1.177,2.846,1.766,3.365,2.715S22,9.915,22,12.2v1.521c0,3.9,0,5.851-1.172,7.063S17.771,22,14,22H10c-3.771,0-5.657,0-6.828-1.212S2,17.626,2,13.725Z" transform="translate(-1.25 -1.25)" fill="none" stroke="#ff7f00" stroke-width="1.5"/>
</svg>
