<svg width="382" height="56" viewBox="0 0 382 56" fill="none" xmlns="http://www.w3.org/2000/svg">
<path d="M23.08 43.72C19.84 43.72 16.82 43.2 14.02 42.16C11.26 41.08 8.86 39.56 6.82 37.6C4.78 35.64 3.18 33.34 2.02 30.7C0.9 28.06 0.34 25.16 0.34 22C0.34 18.84 0.9 15.94 2.02 13.3C3.18 10.66 4.78 8.36 6.82 6.4C8.9 4.44 11.32 2.94 14.08 1.9C16.84 0.819998 19.86 0.279999 23.14 0.279999C26.78 0.279999 30.06 0.919999 32.98 2.2C35.94 3.44 38.42 5.28 40.42 7.72L34.18 13.48C32.74 11.84 31.14 10.62 29.38 9.82C27.62 8.98 25.7 8.56 23.62 8.56C21.66 8.56 19.86 8.88 18.22 9.52C16.58 10.16 15.16 11.08 13.96 12.28C12.76 13.48 11.82 14.9 11.14 16.54C10.5 18.18 10.18 20 10.18 22C10.18 24 10.5 25.82 11.14 27.46C11.82 29.1 12.76 30.52 13.96 31.72C15.16 32.92 16.58 33.84 18.22 34.48C19.86 35.12 21.66 35.44 23.62 35.44C25.7 35.44 27.62 35.04 29.38 34.24C31.14 33.4 32.74 32.14 34.18 30.46L40.42 36.22C38.42 38.66 35.94 40.52 32.98 41.8C30.06 43.08 26.76 43.72 23.08 43.72ZM46.3239 43V10.72H55.2639V19.84L54.0039 17.2C54.9639 14.92 56.5039 13.2 58.6239 12.04C60.7439 10.84 63.3239 10.24 66.3639 10.24V18.88C65.9639 18.84 65.6039 18.82 65.2839 18.82C64.9639 18.78 64.6239 18.76 64.2639 18.76C61.7039 18.76 59.6239 19.5 58.0239 20.98C56.4639 22.42 55.6839 24.68 55.6839 27.76V43H46.3239ZM77.1227 55.12C75.4427 55.12 73.7827 54.86 72.1427 54.34C70.5027 53.82 69.1627 53.1 68.1227 52.18L71.5427 45.52C72.2627 46.16 73.0827 46.66 74.0027 47.02C74.9627 47.38 75.9027 47.56 76.8227 47.56C78.1427 47.56 79.1827 47.24 79.9427 46.6C80.7427 46 81.4627 44.98 82.1027 43.54L83.7827 39.58L84.5027 38.56L96.0827 10.72H105.083L90.5027 44.98C89.4627 47.58 88.2627 49.62 86.9027 51.1C85.5827 52.58 84.1027 53.62 82.4627 54.22C80.8627 54.82 79.0827 55.12 77.1227 55.12ZM82.6427 44.26L68.2427 10.72H77.9027L89.0627 37.72L82.6427 44.26ZM127.982 43.48C125.262 43.48 122.882 42.88 120.842 41.68C118.802 40.48 117.202 38.66 116.042 36.22C114.922 33.74 114.362 30.62 114.362 26.86C114.362 23.06 114.902 19.94 115.982 17.5C117.062 15.06 118.622 13.24 120.662 12.04C122.702 10.84 125.142 10.24 127.982 10.24C131.022 10.24 133.742 10.94 136.142 12.34C138.582 13.7 140.502 15.62 141.902 18.1C143.342 20.58 144.062 23.5 144.062 26.86C144.062 30.26 143.342 33.2 141.902 35.68C140.502 38.16 138.582 40.08 136.142 41.44C133.742 42.8 131.022 43.48 127.982 43.48ZM108.902 54.64V10.72H117.842V17.32L117.662 26.92L118.262 36.46V54.64H108.902ZM126.362 35.8C127.922 35.8 129.302 35.44 130.502 34.72C131.742 34 132.722 32.98 133.442 31.66C134.202 30.3 134.582 28.7 134.582 26.86C134.582 24.98 134.202 23.38 133.442 22.06C132.722 20.74 131.742 19.72 130.502 19C129.302 18.28 127.922 17.92 126.362 17.92C124.802 17.92 123.402 18.28 122.162 19C120.922 19.72 119.942 20.74 119.222 22.06C118.502 23.38 118.142 24.98 118.142 26.86C118.142 28.7 118.502 30.3 119.222 31.66C119.942 32.98 120.922 34 122.162 34.72C123.402 35.44 124.802 35.8 126.362 35.8ZM163.528 43.48C159.728 43.48 156.768 42.52 154.648 40.6C152.528 38.64 151.468 35.74 151.468 31.9V3.58H160.828V31.78C160.828 33.14 161.188 34.2 161.908 34.96C162.628 35.68 163.608 36.04 164.848 36.04C166.328 36.04 167.588 35.64 168.628 34.84L171.148 41.44C170.188 42.12 169.028 42.64 167.668 43C166.348 43.32 164.968 43.48 163.528 43.48ZM146.488 18.64V11.44H168.868V18.64H146.488ZM190.766 43.48C187.326 43.48 184.266 42.76 181.586 41.32C178.946 39.88 176.846 37.92 175.286 35.44C173.766 32.92 173.006 30.06 173.006 26.86C173.006 23.62 173.766 20.76 175.286 18.28C176.846 15.76 178.946 13.8 181.586 12.4C184.266 10.96 187.326 10.24 190.766 10.24C194.166 10.24 197.206 10.96 199.886 12.4C202.566 13.8 204.666 15.74 206.186 18.22C207.706 20.7 208.466 23.58 208.466 26.86C208.466 30.06 207.706 32.92 206.186 35.44C204.666 37.92 202.566 39.88 199.886 41.32C197.206 42.76 194.166 43.48 190.766 43.48ZM190.766 35.8C192.326 35.8 193.726 35.44 194.966 34.72C196.206 34 197.186 32.98 197.906 31.66C198.626 30.3 198.986 28.7 198.986 26.86C198.986 24.98 198.626 23.38 197.906 22.06C197.186 20.74 196.206 19.72 194.966 19C193.726 18.28 192.326 17.92 190.766 17.92C189.206 17.92 187.806 18.28 186.566 19C185.326 19.72 184.326 20.74 183.566 22.06C182.846 23.38 182.486 24.98 182.486 26.86C182.486 28.7 182.846 30.3 183.566 31.66C184.326 32.98 185.326 34 186.566 34.72C187.806 35.44 189.206 35.8 190.766 35.8ZM220.844 28.42C220.844 27.02 221.064 25.78 221.504 24.7C221.984 23.62 222.564 22.66 223.244 21.82C223.964 20.98 224.724 20.2 225.524 19.48C226.324 18.76 227.064 18.08 227.744 17.44C228.464 16.76 229.044 16.06 229.484 15.34C229.964 14.62 230.204 13.82 230.204 12.94C230.204 11.5 229.604 10.34 228.404 9.46C227.244 8.58 225.684 8.14 223.724 8.14C221.844 8.14 220.164 8.54 218.684 9.34C217.204 10.1 215.984 11.18 215.024 12.58L207.764 8.32C209.364 5.88 211.584 3.94 214.424 2.5C217.264 1.02 220.704 0.279999 224.744 0.279999C227.744 0.279999 230.384 0.719998 232.664 1.6C234.944 2.44 236.724 3.68 238.004 5.32C239.324 6.96 239.984 8.98 239.984 11.38C239.984 12.94 239.744 14.32 239.264 15.52C238.784 16.72 238.164 17.76 237.404 18.64C236.644 19.52 235.824 20.34 234.944 21.1C234.104 21.86 233.304 22.6 232.544 23.32C231.784 24.04 231.144 24.8 230.624 25.6C230.144 26.4 229.904 27.34 229.904 28.42H220.844ZM225.404 43.48C223.724 43.48 222.344 42.94 221.264 41.86C220.184 40.78 219.644 39.5 219.644 38.02C219.644 36.5 220.184 35.24 221.264 34.24C222.344 33.2 223.724 32.68 225.404 32.68C227.124 32.68 228.504 33.2 229.544 34.24C230.624 35.24 231.164 36.5 231.164 38.02C231.164 39.5 230.624 40.78 229.544 41.86C228.504 42.94 227.124 43.48 225.404 43.48Z" fill="white"/>
<path d="M275.568 43V25.84L277.788 31.72L259.308 0.999997H269.628L283.788 24.58H277.848L292.068 0.999997H301.608L283.128 31.72L285.288 25.84V43H275.568ZM317.461 43.48C313.781 43.48 310.541 42.76 307.741 41.32C304.981 39.88 302.841 37.92 301.321 35.44C299.801 32.92 299.041 30.06 299.041 26.86C299.041 23.62 299.781 20.76 301.261 18.28C302.781 15.76 304.841 13.8 307.441 12.4C310.041 10.96 312.981 10.24 316.261 10.24C319.421 10.24 322.261 10.92 324.781 12.28C327.341 13.6 329.361 15.52 330.841 18.04C332.321 20.52 333.061 23.5 333.061 26.98C333.061 27.34 333.041 27.76 333.001 28.24C332.961 28.68 332.921 29.1 332.881 29.5H306.661V24.04H327.961L324.361 25.66C324.361 23.98 324.021 22.52 323.341 21.28C322.661 20.04 321.721 19.08 320.521 18.4C319.321 17.68 317.921 17.32 316.321 17.32C314.721 17.32 313.301 17.68 312.061 18.4C310.861 19.08 309.921 20.06 309.241 21.34C308.561 22.58 308.221 24.06 308.221 25.78V27.22C308.221 28.98 308.601 30.54 309.361 31.9C310.161 33.22 311.261 34.24 312.661 34.96C314.101 35.64 315.781 35.98 317.701 35.98C319.421 35.98 320.921 35.72 322.201 35.2C323.521 34.68 324.721 33.9 325.801 32.86L330.781 38.26C329.301 39.94 327.441 41.24 325.201 42.16C322.961 43.04 320.381 43.48 317.461 43.48ZM350.153 43.48C347.393 43.48 344.733 43.16 342.173 42.52C339.653 41.84 337.653 41 336.173 40L339.293 33.28C340.773 34.2 342.513 34.96 344.513 35.56C346.553 36.12 348.553 36.4 350.513 36.4C352.673 36.4 354.193 36.14 355.073 35.62C355.993 35.1 356.453 34.38 356.453 33.46C356.453 32.7 356.093 32.14 355.373 31.78C354.693 31.38 353.773 31.08 352.613 30.88C351.453 30.68 350.173 30.48 348.773 30.28C347.413 30.08 346.033 29.82 344.633 29.5C343.233 29.14 341.953 28.62 340.793 27.94C339.633 27.26 338.693 26.34 337.973 25.18C337.293 24.02 336.953 22.52 336.953 20.68C336.953 18.64 337.533 16.84 338.693 15.28C339.893 13.72 341.613 12.5 343.853 11.62C346.093 10.7 348.773 10.24 351.893 10.24C354.093 10.24 356.333 10.48 358.613 10.96C360.893 11.44 362.793 12.14 364.313 13.06L361.193 19.72C359.633 18.8 358.053 18.18 356.453 17.86C354.893 17.5 353.373 17.32 351.893 17.32C349.813 17.32 348.293 17.6 347.333 18.16C346.373 18.72 345.893 19.44 345.893 20.32C345.893 21.12 346.233 21.72 346.913 22.12C347.633 22.52 348.573 22.84 349.733 23.08C350.893 23.32 352.153 23.54 353.513 23.74C354.913 23.9 356.313 24.16 357.713 24.52C359.113 24.88 360.373 25.4 361.493 26.08C362.653 26.72 363.593 27.62 364.313 28.78C365.033 29.9 365.393 31.38 365.393 33.22C365.393 35.22 364.793 37 363.593 38.56C362.393 40.08 360.653 41.28 358.373 42.16C356.133 43.04 353.393 43.48 350.153 43.48ZM371.828 28.42L369.968 0.999997H381.128L379.268 28.42H371.828ZM375.548 43.48C373.868 43.48 372.488 42.94 371.408 41.86C370.328 40.78 369.788 39.5 369.788 38.02C369.788 36.5 370.328 35.24 371.408 34.24C372.488 33.2 373.868 32.68 375.548 32.68C377.268 32.68 378.648 33.2 379.688 34.24C380.768 35.24 381.308 36.5 381.308 38.02C381.308 39.5 380.768 40.78 379.688 41.86C378.648 42.94 377.268 43.48 375.548 43.48Z" fill="#FF7F00"/>
</svg>
