<svg xmlns="http://www.w3.org/2000/svg" width="14.358" height="11" viewBox="0 0 14.358 11">
  <path id="mail-alt-3-svgrepo-com" d="M16,7.143,13.428,8.556a11.19,11.19,0,0,1-2.91,1.336,5.112,5.112,0,0,1-2.037,0,11.191,11.191,0,0,1-2.91-1.336L3,7.143M5.311,15h8.378a3.626,3.626,0,0,0,1.522-.156,1.436,1.436,0,0,0,.631-.624A3.512,3.512,0,0,0,16,12.714V7.286a3.512,3.512,0,0,0-.157-1.506,1.436,1.436,0,0,0-.631-.624A3.626,3.626,0,0,0,13.689,5H5.311a3.626,3.626,0,0,0-1.522.156,1.437,1.437,0,0,0-.631.624A3.513,3.513,0,0,0,3,7.286v5.429a3.513,3.513,0,0,0,.157,1.506,1.436,1.436,0,0,0,.631.624A3.626,3.626,0,0,0,5.311,15Z" transform="translate(-2.321 -4.5)" fill="none" stroke="#fff" stroke-linecap="round" stroke-linejoin="round" stroke-width="1" opacity="0.5"/>
</svg>
